<?xml version="1.0" encoding="UTF-8"?>
<!DOCTYPE svg PUBLIC "-//W3C//DTD SVG 1.1//EN" "http://www.w3.org/Graphics/SVG/1.1/DTD/svg11.dtd">
<!-- Creator: CorelDRAW -->
<svg xmlns="http://www.w3.org/2000/svg" xml:space="preserve" width="8.5in" height="11in" version="1.1" style="shape-rendering:geometricPrecision; text-rendering:geometricPrecision; image-rendering:optimizeQuality; fill-rule:evenodd; clip-rule:evenodd"
viewBox="0 0 8500 11000"
 xmlns:xlink="http://www.w3.org/1999/xlink">
 <defs>
  <style type="text/css">
   <![CDATA[
    .fil1 {fill:#848688}
    .fil4 {fill:#810000}
    .fil5 {fill:#727376;fill-rule:nonzero}
    .fil3 {fill:url(#id0)}
    .fil2 {fill:url(#id1)}
    .fil0 {fill:url(#id2)}
   ]]>
  </style>
  <linearGradient id="id0" gradientUnits="userSpaceOnUse" x1="3089.93" y1="5313.12" x2="3901.55" y2="4383.53">
   <stop offset="0" style="stop-opacity:1; stop-color:#C3C4C9"/>
   <stop offset="0.0117647" style="stop-opacity:1; stop-color:#CACBCD"/>
   <stop offset="0.34902" style="stop-opacity:1; stop-color:white"/>
   <stop offset="0.639216" style="stop-opacity:1; stop-color:#BFC0C4"/>
   <stop offset="0.94902" style="stop-opacity:1; stop-color:#FEFEFE"/>
   <stop offset="1" style="stop-opacity:1; stop-color:#FEFEFE"/>
  </linearGradient>
  <linearGradient id="id1" gradientUnits="userSpaceOnUse" x1="2696.55" y1="5011.89" x2="3643.51" y2="4261.43">
   <stop offset="0" style="stop-opacity:1; stop-color:#CD131E"/>
   <stop offset="0.419608" style="stop-opacity:1; stop-color:#F79475"/>
   <stop offset="0.760784" style="stop-opacity:1; stop-color:#B41318"/>
   <stop offset="0.988235" style="stop-opacity:1; stop-color:#F99578"/>
   <stop offset="1" style="stop-opacity:1; stop-color:#FEFEFE"/>
  </linearGradient>
  <radialGradient id="id2" gradientUnits="userSpaceOnUse" gradientTransform="matrix(0.998997 -0.0379105 0.0378104 1.00164 -202 115)" cx="3277.16" cy="5440.02" r="642.724" fx="3277.16" fy="5440.02">
   <stop offset="0" style="stop-opacity:1; stop-color:#CA0000"/>
   <stop offset="0.278431" style="stop-opacity:1; stop-color:#A50000"/>
   <stop offset="1" style="stop-opacity:1; stop-color:#810000"/>
  </radialGradient>
 </defs>
 <g id="Layer_x0020_1">
  <metadata id="CorelCorpID_0Corel-Layer"/>
  <g id="OJK.cdr">
   <path class="fil0" d="M3700 5402l230 384 261 0 -350 -538 290 -336 -241 -20 -65 65 -241 298 -5 266 121 -119zm-834 -321c-176,64 -180,428 -38,522 164,108 299,-42 312,-206 7,-86 -9,-211 -77,-277 -51,-50 -130,-63 -197,-39zm491 -163l175 0 3 536c2,292 -146,401 -426,300 0,0 -167,69 -313,14 -245,-92 -304,-479 -157,-695 106,-154 281,-186 427,-130 86,33 204,115 234,318 0,0 45,179 -60,372 0,0 117,31 117,-115 0,-147 0,-600 0,-600z"/>
   <g>
    <path class="fil1" d="M2892 4626c-163,48 -283,196 -283,196 51,91 82,184 81,285 335,-310 570,-304 1002,-194 366,94 572,26 690,-115 -230,135 -496,94 -751,-21 -216,-132 -524,-214 -739,-151z"/>
    <path class="fil2" d="M2610 4831c0,0 119,-165 282,-213 390,-114 675,163 1001,242 -290,-147 -538,-513 -1056,-436 -327,49 -417,191 -417,191 0,0 110,83 190,216z"/>
    <path class="fil3" d="M2892 4618c-163,48 -282,213 -282,213 42,75 76,166 80,268 335,-310 570,-304 1002,-194 366,94 565,27 690,-108 -591,309 -923,-346 -1490,-179z"/>
   </g>
   <polygon class="fil4" points="4375,4922 4403,4922 4403,5836 4375,5836 "/>
   <g>
    <path class="fil5" d="M6080 5550l-32 0 0 85c0,37 1,67 3,98l-1 1c-10,-25 -22,-52 -37,-77l-60 -107 -38 0 0 231 32 0 0 -86c0,-41 -1,-71 -2,-100l1 0c10,26 24,53 38,78l61 108 35 0 0 -231z"/>
    <path class="fil5" d="M5670 5657l-74 0 0 28 40 0 0 65c-5,3 -16,5 -31,5 -45,0 -77,-31 -77,-89 0,-59 35,-89 82,-89 21,0 35,4 46,9l7 -29c-11,-5 -31,-9 -53,-9 -69,0 -118,44 -118,119 0,37 12,117 112,117 27,0 53,-7 66,-12l0 -115z"/>
    <path class="fil5" d="M5454 5550l-32 0 0 85c0,37 1,67 3,98l-1 1c-10,-25 -22,-52 -37,-77l-60 -107 -38 0 0 231 32 0 0 -86c0,-41 -1,-71 -2,-100l1 0c10,26 24,53 38,78l61 108 35 0 0 -231z"/>
    <path class="fil5" d="M5185 5550l-43 0 -70 231 35 0 20 -68 71 0 21 68 36 0 -70 -231zm-52 136l18 -60c4,-15 8,-32 11,-46l1 0c3,14 7,31 11,46l18 60 -59 0z"/>
    <path class="fil5" d="M5058 5550l-38 0 0 140c0,46 -20,66 -52,66 -29,0 -50,-20 -50,-66l0 -140 -39 0 0 138c0,69 36,97 88,97 54,0 91,-29 91,-98l0 -137z"/>
    <polygon class="fil5" points="4851,5752 4760,5752 4760,5675 4841,5675 4841,5646 4760,5646 4760,5579 4845,5579 4845,5550 4725,5550 4725,5781 4851,5781 "/>
    <path class="fil5" d="M4622 5649l76 -99 -43 0 -59 83c-6,8 -11,16 -17,26l-1 0 0 -109 -34 0 0 231 34 0 0 -85 20 -24 63 109 41 0 -80 -132z"/>
    <path class="fil5" d="M4981 5259c-10,-5 -27,-11 -49,-11 -46,0 -75,28 -75,64 0,32 23,53 58,67 27,11 39,23 39,43 0,21 -15,35 -43,35 -19,0 -38,-6 -50,-14l-8 30c11,7 34,14 56,14 52,0 80,-29 80,-68 0,-32 -17,-52 -54,-68 -30,-13 -43,-23 -43,-42 0,-15 12,-31 39,-31 19,0 34,6 41,10l9 -29z"/>
    <path class="fil5" d="M4762 5252l-43 0 -70 231 36 0 19 -68 71 0 21 68 36 0 -70 -231zm-52 136l18 -60c4,-15 8,-32 11,-46l1 0c3,14 7,31 11,46l18 60 -59 0z"/>
    <path class="fil5" d="M4620 5252l-35 0 0 153c0,41 -15,52 -38,52 -9,0 -17,-2 -23,-4l-4 29c7,3 20,5 30,5 41,0 70,-19 70,-81l0 -154z"/>
    <path class="fil5" d="M5851 4961c-10,-5 -26,-11 -48,-11 -46,0 -75,28 -75,64 0,32 23,53 57,67 28,11 39,23 39,43 0,21 -15,35 -42,35 -19,0 -38,-6 -50,-14l-8 30c11,7 34,13 55,13 52,0 81,-29 81,-67 0,-32 -18,-52 -55,-69 -29,-12 -42,-22 -42,-42 0,-14 11,-30 39,-30 19,0 33,6 41,10l8 -29z"/>
    <path class="fil5" d="M5628 4954l-42 0 -71 231 36 0 20 -68 70 0 21 68 37 0 -71 -231zm-52 136l19 -61c4,-14 7,-31 11,-45l0 0c3,14 7,30 12,46l18 60 -60 0z"/>
    <polygon class="fil5" points="5533,4954 5374,4954 5374,4984 5436,4984 5436,5185 5471,5185 5471,4984 5533,4984 "/>
    <polygon class="fil5" points="5316,5185 5351,5185 5351,4954 5316,4954 "/>
    <path class="fil5" d="M5238 5074c25,-8 44,-29 44,-58 0,-19 -7,-35 -20,-45 -15,-13 -37,-19 -69,-19 -22,0 -43,2 -59,5l0 228 37 0 0 -98 22 0c25,0 37,12 44,43 6,28 12,48 15,55l38 0c-5,-9 -11,-33 -18,-63 -6,-24 -16,-41 -34,-47l0 -1zm-67 -13l0 -80c4,-1 13,-2 25,-2 27,0 49,11 49,40 0,25 -19,42 -50,42l-24 0z"/>
    <polygon class="fil5" points="4896,4954 4737,4954 4737,4984 4799,4984 4799,5185 4834,5185 4834,4984 4896,4984 "/>
    <path class="fil5" d="M4636 4951c-62,0 -105,48 -105,121 0,70 40,117 102,117 59,0 104,-40 104,-121 0,-66 -36,-117 -101,-117zm-1 29c43,0 64,45 64,89 0,50 -22,92 -65,92 -42,0 -64,-43 -64,-90 0,-45 20,-91 65,-91z"/>
    <path class="fil5" d="M5004 4951c-62,0 -105,48 -105,121 0,70 40,117 102,117 59,0 105,-40 105,-121 0,-66 -37,-117 -102,-117zm-1 29c44,0 64,45 64,89 0,50 -22,92 -65,92 -42,0 -64,-43 -64,-90 0,-45 20,-91 65,-91z"/>
    <path class="fil5" d="M5123 5252l-42 0 -71 231 36 0 20 -68 70 0 21 68 37 0 -71 -231zm-52 136l19 -60c4,-15 7,-32 11,-46l0 0c3,14 7,31 12,46l18 60 -60 0z"/>
    <path class="fil5" d="M5810 5550l-43 0 -70 231 36 0 19 -68 71 0 21 68 36 0 -70 -231zm-52 136l18 -60c4,-15 8,-32 11,-46l1 0c3,14 7,31 11,46l18 60 -59 0z"/>
   </g>
  </g>
 </g>
</svg>
